PathFileType	4	(X/Y/Z)	C:/Users/beibeiliu/ov580/test_trc/capture2\sequence.37_training_dense_right.trc
DataRate	CameraRate	NumFrames	NumMarkers	Units	OrigDataRate	OrigDataStartFrame	OrigNumFrames
120	120	14	19	mm	120	47	370
Frame#	Time	ThumbCMC			ThumbMCP			ThumbIP			ThumbTip			IndexMCP			IndexPIP			IndexTip			MiddleMCP			MiddlePIP			MiddleTip			RingMCP			RingPIP			RingTip			PinkyMCP			PinkyPIP			PinkyTip			BackHand1			BackHand2			BackHand3	
		X0	Y0	Z0	X1	Y1	Z1	X2	Y2	Z2	X3	Y3	Z3	X4	Y4	Z4	X5	Y5	Z5	X6	Y6	Z6	X7	Y7	Z7	X8	Y8	Z8	X9	Y9	Z9	X10	Y10	Z10	X11	Y11	Z11	X12	Y12	Z12	X13	Y13	Z13	X14	Y14	Z14	X15	Y15	Z15	X16	Y16	Z16	X17	Y17	Z17	X18	Y18	Z18	
46	0.383333	157.823	47.7698	18.3113	143.696	54.3545	-5.65822	138.351	59.5193	-35.7651	133.519	54.5944	-53.6003	159.836	26.8437	-48.7298	130.927	31.8755	-59.9629	111.303	39.4524	-30.8463	151.431	5.67198	-50.2706	121.814	17.1591	-58.8162	107.014	27.9125	-27.5654	144.269	-10.3458	-43.3221	114.822	3.4212	-50.3629	107.839	18.7625	-21.8503	135.243	-29.6765	-33.8262	110.076	-12.4685	-41.2139	107.566	9.14657	-22.3824	165.685	-18.2767	4.98123	168.34	-14.5532	35.2263	179.128	13.7898	16.2783	
47	0.391667	157.529	43.9027	22.1494	143.806	56.7867	-6.06219	138.944	60.6769	-32.3644	134.196	50.8382	-54.9567	160.433	26.8704	-47.7807	128.998	29.8674	-59.4037	111.906	41.5894	-34.7454	149.243	3.00394	-51.3895	118.862	16.6183	-56.8268	107.747	30.5254	-25.0241	143.24	-12.2386	-42.8258	111.611	1.05452	-47.9947	107.391	17.1439	-21.6945	135.784	-28.0429	-32.313	114.574	-12.1881	-42.5519	107.03	9.55954	-22.3199	168.192	-18.7487	8.53884	169.876	-11.5836	38.9517	179.729	15.2193	19.7474	
48	0.4	157.835	46.092	21.0276	143.404	57.1427	-4.18686	138.595	58.6203	-33.6897	133.527	54.0814	-52.6352	156.687	23.6858	-52.1959	132.58	33.0693	-61.8119	111.195	37.5798	-35.7958	148.933	2.63455	-51.4873	121.17	15.9589	-58.034	107.71	29.3661	-25.8797	143.309	-10.6755	-44.774	114.791	-0.641093	-50.2424	107.866	16.6362	-16.7443	135.987	-28.8204	-30.0983	109.965	-16.1766	-40.7525	106.837	8.21598	-21.7149	167.429	-18.0322	10.0563	169.934	-14.6074	36.5029	180.381	14.8512	18.2807	
49	0.408333	157.985	42.9858	19.6584	144.134	53.5357	-8.6386	138.033	59.0029	-30.8678	133.497	52.4545	-54.8911	158.274	22.3624	-48.3409	128.171	31.034	-59.0019	110.978	39.0041	-32.6598	152.901	5.49973	-48.8255	117.782	13.0609	-56.1466	107.459	26.9797	-27.2408	140.482	-14.15	-44.6853	115.534	1.07122	-50.5801	106.92	17.421	-18.28	137.858	-26.8649	-29.5464	110.753	-16.3619	-40.093	105.281	7.3897	-22.1882	168.113	-18.4602	7.4109	169.201	-11.6538	35.8167	181.426	13.5579	18.4567	
50	0.416667	158.387	46.5239	17.5269	142.558	56.4293	-6.53258	137.738	58.2014	-30.4488	133.73	53.8756	-56.4194	159.651	23.9988	-51.1664	130.737	31.5935	-62.0501	110.536	39.0932	-37.8657	150.348	5.56935	-53.2031	122.907	15.1954	-58.8044	106.155	23.6842	-26.1161	141.349	-15.0535	-44.2906	114.952	-1.48757	-50.3117	105.873	15.2912	-18.5618	136.81	-27.1602	-30.8094	114.394	-13.2308	-42.8483	104.304	5.02771	-18.417	169.39	-15.793	4.48743	171.414	-12.2642	34.9162	179.833	13.1746	19.2795	
51	0.425	157.715	48.0727	21.2874	143.679	52.6225	-7.85366	137.488	55.1312	-30.286	133.923	52.1919	-55.571	160.481	20.9892	-47.8562	133.347	27.2717	-61.4607	110.884	40.9068	-39.2146	152.643	3.43283	-48.6748	123.392	13.439	-59.4739	107.672	29.4554	-27.0722	141.793	-16.5863	-42.4586	114.392	2.02408	-50.0273	105.667	15.5092	-19.6816	136.668	-27.3894	-31.7919	112.28	-18.1709	-40.7462	105.834	8.58836	-17.9636	169.07	-16.6722	5.40568	169.254	-15.3414	37.5767	181.892	14.6812	18.3982	
52	0.433333	158.834	46.9852	19.7078	142.411	54.6471	-6.84754	137.584	53.5796	-32.0714	133.571	54.2428	-54.2232	157.138	20.4868	-50.6032	130.797	30.7413	-62.1819	109.742	37.8117	-34.7329	150.606	1.74823	-51.6717	123.755	14.6311	-59.6473	106.6	25.2513	-27.3553	141.837	-13.3314	-45.2156	115.017	-0.749414	-50.2384	105.946	15.8297	-20.4387	137.38	-27.2939	-30.0299	113.446	-15.0176	-42.0955	105.668	7.73277	-20.6505	168.219	-18.9949	7.5437	169.693	-10.5288	39.7371	179.287	12.7747	18.2598	
53	0.441667	158.49	46.4043	20.1882	142.863	56.2664	-6.10413	137.197	56.8474	-29.8869	133.396	53.1614	-57.7051	159.135	20.9224	-48.2715	132.673	25.9553	-61.867	110.916	35.3284	-38.4803	152.327	4.4699	-50.6025	119.057	13.721	-58.8222	105.124	24.5859	-28.7583	140.213	-15.7012	-45.9315	113.887	-2.92842	-50.8304	108.335	18.7746	-22.511	135.719	-29.512	-29.0632	110.672	-18.4356	-40.5131	104.789	7.90653	-22.848	168.585	-18.3505	9.59369	170.272	-11.7755	37.9381	182.099	15.0094	16.9077	
54	0.45	157.387	43.3831	20.8462	142.618	52.3867	-3.4681	138.257	55.2873	-32.3771	133.292	53.7122	-52.5503	156.128	19.8639	-51.5991	128.403	29.6679	-61.3569	110.26	37.538	-38.347	150.126	3.68804	-52.4545	118.743	14.613	-59.0173	105.501	28.1458	-32.3368	140.86	-12.8535	-46.3196	112.973	-4.28351	-51.3031	105.037	15.7113	-25.7543	134.473	-28.261	-32.9057	110.715	-14.2684	-41.2186	104.073	9.68998	-17.6531	167.56	-15.9057	5.62995	168.904	-13.3589	38.0837	181.792	14.0573	14.0066	
55	0.458333	157.448	42.6927	20.3888	144.147	51.6831	-6.21887	138.162	57.2636	-29.3737	132.894	50.5881	-54.8184	156.803	21.87	-50.2524	129.15	27.1281	-60.6334	110.094	37.5653	-39.0517	149.903	3.13673	-51.3404	120.892	13.5708	-60.7118	103.556	27.5139	-29.791	141.167	-16.5729	-43.0462	114.722	1.18625	-53.0723	102.19	14.9236	-25.0774	135.296	-27.6306	-29.9524	108.565	-15.654	-41.6429	102.978	9.7178	-24.1551	167.326	-18.0066	5.82096	167.756	-12.6495	38.4307	180.851	16.3931	14.6947	
56	0.466667	158.398	43.7059	20.9609	143.991	54.7392	-4.98762	139.87	56.3098	-30.2854	133.703	51.0956	-53.3203	155.866	19.3993	-49.2026	132.629	27.5606	-62.5204	109.24	39.8884	-39.4081	150.748	2.95935	-50.2658	122.483	10.1857	-61.725	102.706	27.2495	-35.2842	143.247	-13.1477	-42.6804	113.159	-4.52327	-54.046	100.469	12.8898	-29.1699	136.107	-25.6334	-30.3067	109.502	-17.4926	-42.8926	99.467	6.04414	-22.4445	165.168	-17.8137	9.37161	168.539	-12.7012	38.0817	178.695	13.3405	15.8764	
57	0.475	157.856	46.0674	23.1211	145.976	57.1081	-5.92737	140.469	60.0501	-33.242	133.899	48.6381	-49.1429	158.685	22.1347	-47.6871	131.207	25.3503	-63.3398	108.203	37.1379	-41.0246	150.192	1.69318	-49.538	121.008	12.0866	-63.0589	100.449	24.4448	-38.1981	142.887	-15.9438	-41.4718	116.255	-5.90326	-55.8661	101.016	16.3394	-33.7427	135.193	-29.2375	-31.4483	114.049	-16.2308	-44.5502	98.8212	8.99181	-25.2628	167.387	-13.6068	9.41394	168.092	-12.4681	36.0259	178.149	14.1222	16.9488	
58	0.483333	158.365	45.6864	21.7056	146.095	59.4395	-1.76416	141.745	62.4546	-28.5669	132.54	42.7879	-48.1304	158.174	20.5815	-46.1281	132.584	27.3146	-65.456	108.087	37.1354	-48.0875	152.433	2.50106	-47.8672	120.44	8.66263	-63.2619	99.5629	27.7597	-39.7628	145.645	-11.886	-42.6455	115.324	-6.91924	-54.9594	99.1178	12.8782	-37.3109	136.387	-28.994	-29.3286	112.781	-18.2573	-44.2382	95.6407	5.44515	-29.2746	164.979	-15.3029	11.4735	168.413	-11.3549	41.6782	178.33	15.8721	19.5324	
59	0.491667	157.931	45.1762	23.7233	148.189	61.7683	-2.2813	141.686	54.6268	-28.9352	132.56	39.9391	-44.7427	160.58	23.9946	-46.7385	135.806	24.4881	-64.7857	107.216	33.2322	-49.2859	151.935	3.22058	-50.8356	123.668	9.87016	-65.1367	99.8707	24.0896	-45.0126	144.954	-15.1369	-42.8587	116.631	-7.59485	-56.8533	97.3892	10.4941	-37.7416	137.201	-29.156	-27.0921	113.133	-20.5558	-43.9264	98.3603	3.42517	-32.1591	165.472	-14.0336	6.97051	168.915	-11.0156	41.2869	178.831	15.031	20.7711	
